<svg width="178" height="121" viewBox="0 0 178 121" fill="none" xmlns="http://www.w3.org/2000/svg">
<g clip-path="url(#clip0)">
<path d="M89.249 120.174C122.339 120.174 149.164 93.3495 149.164 60.2595C149.164 27.1695 122.339 0.344727 89.249 0.344727C56.159 0.344727 29.3342 27.1695 29.3342 60.2595C29.3342 93.3495 56.159 120.174 89.249 120.174Z" stroke="#1DBDEF" stroke-width="1.41509" stroke-miterlimit="10"/>
<path d="M92.9141 110.028L94.7537 109.929L95.815 109.844L97.4565 109.702L98.5744 109.589L100.145 109.405L101.249 109.25L102.791 109.009L103.867 108.825L105.466 108.528L106.428 108.33C107.107 108.188 107.772 108.033 108.452 107.863L108.933 107.75C103.288 103.379 99.151 97.353 97.1019 90.5144C95.0528 83.6757 95.194 76.3675 97.5058 69.6131C99.8175 62.8587 104.184 56.9966 109.994 52.8477C115.804 48.6989 122.765 46.4711 129.904 46.4764C130.98 46.4764 132.027 46.4764 133.074 46.6321C132.442 46.1227 131.791 45.6274 131.121 45.1463L130.853 44.9481C130.272 44.5236 129.664 44.1132 129.055 43.717L128.645 43.4481L126.876 42.3585L126.395 42.0755L124.57 41.0567L124.074 40.8019C123.433 40.4623 122.782 40.1368 122.121 39.8255L121.669 39.6133L119.447 38.6227L119.178 38.5095C117.452 37.7878 115.683 37.0944 113.843 36.5425H113.688C112.853 36.2737 112.004 36.0189 111.155 35.7784L110.405 35.5803L108.48 35.0142L107.518 34.7878L105.65 34.3916L104.56 34.1793L102.749 33.868L101.589 33.6841L99.7631 33.4435L98.5886 33.302L96.6923 33.118L95.5461 33.019C94.8527 33.019 94.1311 32.9341 93.4518 32.8916H92.4471C91.4141 32.8916 90.3811 32.8916 89.3339 32.8916C88.2867 32.8916 87.2396 32.8916 86.2066 32.8916H85.216C84.5084 32.8916 83.8009 32.8916 83.1217 33.019L81.9613 33.118L80.0792 33.302L78.8906 33.4435L77.0651 33.6841L75.9047 33.868L74.0934 34.1793L73.0038 34.3916L71.1359 34.7878L70.1736 35.0142L68.15 35.5378L67.4142 35.7359C66.551 35.9765 65.7161 36.2312 64.8812 36.5001H64.7255C62.8859 37.0944 61.1029 37.7454 59.3765 38.467L59.1218 38.5803C58.3577 38.9057 57.6218 39.2312 56.9001 39.5708L56.4473 39.7831C55.7869 40.0944 55.136 40.4199 54.4945 40.7595L53.9992 41.0142L52.1596 42.0331L51.6926 42.3161C51.0841 42.6699 50.4898 43.0378 49.9096 43.4057L49.5134 43.6746C48.8907 44.0708 48.2964 44.4812 47.702 44.9057L47.4473 45.1038C46.7681 45.5849 46.1171 46.0802 45.4945 46.5896C46.5275 46.4906 47.5888 46.434 48.6502 46.434C55.7779 46.4499 62.723 48.6904 68.5162 52.843C74.3095 56.9955 78.662 62.8529 80.9664 69.5979C83.2708 76.3429 83.4122 83.6391 81.3709 90.4683C79.3295 97.2975 75.2073 103.319 69.5793 107.693L70.0604 107.806C70.7255 107.976 71.4755 108.132 72.0698 108.273L73.0462 108.471L74.6311 108.769L75.7066 108.953L77.2491 109.193L78.367 109.349L79.9236 109.533L81.0415 109.646L82.683 109.787L83.7585 109.872L85.5839 109.971H86.5037C87.4235 109.971 88.3433 109.971 89.3339 109.971C90.3245 109.971 91.1877 109.971 92.1641 109.971L92.9141 110.028Z" fill="#231F20"/>
<path d="M66.4519 52.2643C67.0149 52.2643 67.5548 52.0407 67.9528 51.6426C68.3509 51.2445 68.5745 50.7046 68.5745 50.1417C68.5745 49.5787 68.3509 49.0388 67.9528 48.6407C67.5548 48.2427 67.0149 48.019 66.4519 48.019C65.889 48.019 65.3491 48.2427 64.951 48.6407C64.5529 49.0388 64.3293 49.5787 64.3293 50.1417C64.3293 50.7046 64.5529 51.2445 64.951 51.6426C65.3491 52.0407 65.889 52.2643 66.4519 52.2643Z" fill="black"/>
<path d="M142.074 76.745C147.171 71.0135 153.936 67.0245 161.418 65.3394C164.229 64.6933 166.779 63.2136 168.734 61.0942L169.117 60.698L169.371 60.4149C170.135 59.6083 170.871 58.8017 171.579 58.0093L172.032 57.4999C172.668 56.764 173.305 56.0848 173.914 55.3065C174.083 55.1225 174.239 54.9244 174.395 54.7404C174.989 54.0329 175.569 53.3254 176.121 52.6178L176.574 52.0518L177.819 50.4103C175.108 52.2781 172.181 53.8127 169.102 54.981C167.2 55.7111 165.246 56.3023 163.258 56.7499C161.217 57.2124 159.099 57.211 157.059 56.7456C155.018 56.2803 153.109 55.3629 151.47 54.0612C145.811 49.4841 138.839 46.8309 131.569 46.4874C124.298 46.1438 117.107 48.1277 111.041 52.1508C116.31 58.4677 119.16 66.4535 119.079 74.679C119.079 87.0186 113.022 97.7308 104.136 103.151C107.344 106.846 111.309 109.808 115.763 111.837C120.216 113.866 125.053 114.914 129.947 114.91C131.771 114.913 133.593 114.771 135.395 114.485C132.765 108.218 131.997 101.325 133.181 94.6324C134.366 87.9394 137.453 81.7294 142.074 76.745Z" fill="#7ECFD4"/>
<path d="M85.1877 110.028L83.3622 109.929L82.2868 109.845L80.6453 109.703L79.5273 109.59L77.9707 109.406L76.8528 109.25L75.3104 109.01L74.2349 108.826L72.6359 108.528L71.6736 108.33C70.9944 108.189 70.3293 108.033 69.6642 107.863L69.1689 107.75C74.814 103.38 78.9508 97.3535 80.9999 90.5149C83.049 83.6763 82.9078 76.368 80.596 69.6136C78.2842 62.8592 73.9177 56.9971 68.108 52.8482C62.2983 48.6994 55.3363 46.4716 48.1973 46.477C47.1219 46.477 46.0747 46.4769 45.0275 46.6326C45.669 46.1232 46.32 45.6279 46.9803 45.1468L47.2492 44.9487C47.8435 44.5241 48.4379 44.1138 49.0464 43.7175L49.4567 43.4487L51.2256 42.3591L51.7067 42.076L53.5322 41.0572L54.0275 40.8025C54.6784 40.4628 55.3294 40.1374 55.9803 39.826L56.4331 39.6138L58.6548 38.6232L58.9237 38.51C60.6501 37.7883 62.4331 37.0949 64.2585 36.543H64.4142C65.2538 36.2789 66.1029 36.0242 66.9614 35.7789L67.6972 35.5808L69.7208 35.0572L70.683 34.8308L72.551 34.4346L73.6406 34.2223L75.4519 33.911L76.6123 33.727L78.4377 33.4865L79.6122 33.3449L81.5085 33.161L82.6688 33.0619L84.749 32.9346H85.7537C86.7867 32.9346 87.8197 32.9346 88.8669 32.9346C89.9141 32.9346 90.9612 32.9346 91.9943 32.9346H92.999L95.0791 33.0619L96.2395 33.161L98.1216 33.3449L99.3102 33.4865L101.136 33.727L102.296 33.911L104.107 34.2223L105.197 34.4346L107.065 34.8308L108.027 35.0572L110.051 35.5808L110.787 35.7789C111.655 36.0242 112.504 36.2789 113.334 36.543H113.475C115.315 37.1374 117.098 37.7883 118.824 38.51L119.093 38.6232C119.843 38.9487 120.579 39.2742 121.301 39.6138L121.768 39.826C122.419 40.1374 123.07 40.4628 123.706 40.8025L124.216 41.0572L126.041 42.076L126.508 42.3591C127.117 42.7128 127.711 43.0807 128.291 43.4487L128.702 43.7175C129.31 44.1138 129.904 44.5241 130.499 44.9487L130.768 45.1468C131.433 45.6279 132.084 46.1232 132.706 46.6326C131.673 46.5336 130.612 46.477 129.551 46.477C122.426 46.4868 115.482 48.7206 109.687 52.8666C103.893 57.0126 99.5371 62.864 97.228 69.6044C94.9189 76.3448 94.7715 83.6379 96.8064 90.466C98.8412 97.2942 102.957 103.317 108.579 107.694L108.084 107.807C107.419 107.977 106.754 108.132 106.074 108.274L105.098 108.472L103.513 108.769L102.438 108.953L100.895 109.194L99.7772 109.349L98.2206 109.533L97.1027 109.646L95.4612 109.788L94.3857 109.873L92.5603 109.972H91.6405C90.7207 109.972 89.8009 109.972 88.8103 109.972C87.8198 109.972 86.9565 109.972 85.9801 109.972L85.1877 110.028Z" fill="#231F20"/>
<path d="M36.0842 76.7454C31.0945 71.1339 24.5072 67.1835 17.207 65.4247C14.0958 64.7069 11.2655 63.0875 9.07021 60.7691C8.97348 60.6818 8.88359 60.5872 8.80134 60.4861C8.05134 59.6795 7.30135 58.8729 6.59381 58.0804L6.14098 57.571C5.50419 56.8352 4.8674 56.1559 4.25891 55.3776C4.0891 55.1937 3.93345 54.9956 3.77779 54.8116C3.18345 54.1041 2.60327 53.3965 2.05138 52.689L1.59855 52.1229L0.353271 50.4814C4.61169 53.4114 9.38334 55.514 14.4192 56.6795C16.6185 57.1921 18.9048 57.2039 21.1093 56.714C23.3137 56.2241 25.3798 55.2451 27.155 53.8493C32.8122 49.4073 39.7258 46.8617 46.9128 46.5746C54.0998 46.2876 61.1944 48.2736 67.1878 52.2503C61.9188 58.5672 59.0696 66.5529 59.1501 74.7785C59.1501 87.118 65.2067 97.8302 74.0934 103.25C70.8857 106.946 66.9206 109.909 62.4672 111.938C58.0138 113.967 53.1761 115.014 48.2823 115.009C46.4579 115.012 44.6361 114.87 42.8342 114.585C45.4668 108.296 46.2303 101.382 45.0331 94.6709C43.8359 87.9595 40.7288 81.7358 36.0842 76.7454Z" fill="#195460"/>
<path d="M35.3484 45.316C40.4674 45.316 44.6172 41.1662 44.6172 36.0471C44.6172 30.9281 40.4674 26.7783 35.3484 26.7783C30.2294 26.7783 26.0796 30.9281 26.0796 36.0471C26.0796 41.1662 30.2294 45.316 35.3484 45.316Z" fill="#195460"/>
<path d="M88.8669 28.7598C93.9859 28.7598 98.1357 24.61 98.1357 19.491C98.1357 14.372 93.9859 10.2222 88.8669 10.2222C83.7479 10.2222 79.5981 14.372 79.5981 19.491C79.5981 24.61 83.7479 28.7598 88.8669 28.7598Z" fill="#231F20"/>
<path d="M144.183 45.316C149.302 45.316 153.451 41.1662 153.451 36.0471C153.451 30.9281 149.302 26.7783 144.183 26.7783C139.064 26.7783 134.914 30.9281 134.914 36.0471C134.914 41.1662 139.064 45.316 144.183 45.316Z" fill="#7ECFD4"/>
</g>
<defs>
<clipPath id="clip0">
<rect width="177.466" height="119.83" fill="white" transform="translate(0.353271 0.344727)"/>
</clipPath>
</defs>
</svg>
